<?xml version="1.0" encoding="UTF-8"?>
<!-- This is a default capability in homey 12.2 and higher, but included for backwards compatibility with older devices -->
<svg width="64px" height="64px" viewBox="0 0 64 64" version="1.1" xmlns="http://www.w3.org/2000/svg" xmlns:xlink="http://www.w3.org/1999/xlink">
    <title>alarm_connectivity</title>
    <g id="alarm_connectivity" stroke="none" stroke-width="1" fill="none" fill-rule="evenodd">
        <path d="M22,8 C24.209139,8 26,9.790861 26,12 L26,20 C26,22.209139 24.209139,24 22,24 L20,24 L20,27 C20,28.6568542 21.3431458,30 23,30 L41,30 C42.6568542,30 44,28.6568542 44,27 L44,24 L42,24 C39.790861,24 38,22.209139 38,20 L38,12 C38,9.790861 39.790861,8 42,8 L50,8 C52.209139,8 54,9.790861 54,12 L54,20 C54,22.209139 52.209139,24 50,24 L48,24 L48,27 C48,28.6568542 49.3431458,30 51,30 L54,30 C55.1045695,30 56,30.8954305 56,32 C56,33.1045695 55.1045695,34 54,34 L37,34 C35.3431458,34 34,35.3431458 34,37 L34,40 L36,40 C38.209139,40 40,41.790861 40,44 L40,52 C40,54.209139 38.209139,56 36,56 L28,56 C25.790861,56 24,54.209139 24,52 L24,44 C24,41.790861 25.790861,40 28,40 L30,40 L30,37 C30,35.3431458 28.6568542,34 27,34 L10,34 C8.8954305,34 8,33.1045695 8,32 C8,30.8954305 8.8954305,30 10,30 L13,30 C14.6568542,30 16,28.6568542 16,27 L16,24 L14,24 C11.790861,24 10,22.209139 10,20 L10,12 C10,9.790861 11.790861,8 14,8 L22,8 Z" id="Combined-Shape" fill="#000000"></path>
    </g>
</svg>