<svg width="960" height="960" viewBox="0 0 960 960" fill="none" xmlns="http://www.w3.org/2000/svg">
    <mask id="path-1-inside-1_18_100" fill="white">
        <rect x="230" y="230" width="500" height="500" rx="40"/>
    </mask>
    <rect x="230" y="230" width="500" height="500" rx="40" stroke="black" stroke-width="120" mask="url(#path-1-inside-1_18_100)"/>
    <path fill-rule="evenodd" clip-rule="evenodd" d="M370 370V400V430V530V560V590H400H430H529.98H559.98H589.98V560V530V430V400V370H559.98H529.98H430H400H370ZM270 400H90V340H270V349V400ZM340 269H350H400V111.482H340V269ZM559.98 269H609H619.98V108.518H559.98V269ZM689 340V349V400H870V340H689ZM689 560V611V620H870V560H689ZM619.98 691H609H559.98V888.518H619.98V691ZM400 691H350H340V891.482H400V691ZM270 620V611V560H90V620H270ZM350 349H609V611H350V349Z" fill="black"/>
</svg>
