<svg width="960" height="960" viewBox="0 0 960 960" fill="none" xmlns="http://www.w3.org/2000/svg">
    <rect width="960" height="960"/>
    <g clip-path="url(#clip0_17_89)">
        <path d="M662 788.5C662 853.195 627.855 913.135 569.953 957.538C512.031 1001.96 431.15 1030 341 1030C250.85 1030 169.969 1001.96 112.047 957.538C54.1451 913.135 20 853.195 20 788.5C20 723.805 54.1451 663.865 112.047 619.462C169.969 575.044 250.85 547 341 547C431.15 547 512.031 575.044 569.953 619.462C627.855 663.865 662 723.805 662 788.5Z" stroke="black" stroke-width="60"/>
        <path fill-rule="evenodd" clip-rule="evenodd" d="M613.79 967.1C599.652 978.23 584.301 988.441 567.903 997.606C599.659 1006.77 634.067 1011.78 670 1011.78C830.163 1011.78 960 912.213 960 789.39C960 666.567 830.163 567 670 567C647.022 567 624.668 569.049 603.232 572.923C618.076 583.687 631.728 595.417 644.019 607.983C652.543 607.334 661.21 607 670 607C742.053 607 805.814 629.441 850.72 663.878C895.586 698.284 920 743.011 920 789.39C920 835.769 895.586 880.496 850.72 914.902C805.814 949.339 742.053 971.78 670 971.78C650.593 971.78 631.788 970.152 613.79 967.1Z" fill="black"/>
    </g>
    <circle cx="336" cy="282" r="180" stroke="black" stroke-width="60"/>
    <path fill-rule="evenodd" clip-rule="evenodd" d="M549.242 386.152C542.793 398.458 535.241 410.131 526.713 421.049C557.688 453.664 601.469 474 650 474C743.888 474 820 397.888 820 304C820 210.112 743.888 134 650 134C610.582 134 574.297 147.416 545.463 169.93C552.289 181.927 558.047 194.574 562.616 207.749C585.699 186.78 616.357 174 650 174C721.797 174 780 232.203 780 304C780 375.797 721.797 434 650 434C609.363 434 573.081 415.355 549.242 386.152Z" fill="black"/>
    <defs>
        <clipPath id="clip0_17_89">
            <rect width="960" height="796" fill="white" transform="translate(0 82)"/>
        </clipPath>
    </defs>
</svg>
