<?xml version="1.0" standalone="no"?>
<!DOCTYPE svg PUBLIC "-//W3C//DTD SVG 20010904//EN"
 "http://www.w3.org/TR/2001/REC-SVG-20010904/DTD/svg10.dtd">
<svg version="1.0" xmlns="http://www.w3.org/2000/svg"
 width="512.000000pt" height="512.000000pt" viewBox="0 0 512.000000 512.000000"
 preserveAspectRatio="xMidYMid meet">

<g transform="translate(0.000000,512.000000) scale(0.100000,-0.100000)"
fill="#000000" stroke="none">
<path d="M1200 4667 c0 -98 40 -309 85 -444 152 -457 515 -766 983 -837 41 -6
42 -6 42 23 0 129 -171 375 -492 708 l-163 168 115 -105 c168 -153 537 -523
606 -610 34 -41 78 -101 100 -134 l38 -58 67 6 c163 15 366 89 494 180 76 55
178 164 223 239 63 104 102 252 102 385 l0 62 -80 0 c-224 0 -444 -104 -583
-275 -92 -114 -152 -241 -197 -418 l-27 -109 -12 99 c-72 586 -371 961 -869
1093 -103 28 -260 50 -354 50 -75 0 -78 -1 -78 -23z"/>
<path d="M2402 3310 c-101 -27 -180 -71 -275 -156 -45 -39 -264 -255 -487
-480 -423 -427 -447 -456 -498 -592 -37 -99 -43 -268 -13 -377 44 -160 42
-157 560 -678 296 -297 499 -493 536 -518 33 -22 96 -52 140 -66 70 -24 96
-27 205 -27 111 0 134 3 205 27 43 16 109 48 145 72 92 62 973 949 1018 1027
18 31 45 89 60 130 22 63 26 89 27 193 0 97 -4 133 -22 190 -47 147 -61 164
-583 686 -461 462 -489 488 -560 522 -41 20 -104 43 -140 51 -89 21 -228 19
-318 -4z m709 -780 c-20 -80 -46 -147 -135 -352 -60 -137 -79 -227 -73 -338 9
-154 69 -286 178 -390 71 -68 209 -136 309 -153 18 -3 16 -5 -11 -6 -59 -2
-180 34 -380 114 -247 98 -319 118 -433 117 -249 -3 -439 -132 -522 -355 -13
-34 -23 -53 -23 -42 -2 43 42 171 103 308 85 189 106 262 113 377 15 275 -134
486 -412 583 l-80 28 53 -6 c75 -8 193 -47 354 -116 75 -32 164 -67 196 -78
240 -81 476 -28 635 141 61 65 123 178 135 245 3 21 8 30 10 21 2 -10 -6 -54
-17 -98z m-1094 -1462 c-3 -7 -5 -2 -5 12 0 14 2 19 5 13 2 -7 2 -19 0 -25z"/>
</g>
</svg>
